<svg width="24" height="24" viewBox="0 0 24 24" fill="none" xmlns="http://www.w3.org/2000/svg">
<g clip-path="url(#clip0_6992_8860)">
<path d="M20.4431 20.2784H16.8881V14.7559C16.8881 13.439 16.8644 11.7437 15.039 11.7437C13.1874 11.7437 12.9041 13.1785 12.9041 14.66V20.278H9.34902V8.92148H12.7619V10.4735H12.8097C13.1512 9.8942 13.6448 9.41766 14.2378 9.09461C14.8308 8.77157 15.501 8.61411 16.177 8.639C19.7803 8.639 20.4446 10.9899 20.4446 14.0484L20.4431 20.2784ZM5.3377 7.36912C4.92966 7.3692 4.53076 7.24925 4.19145 7.02445C3.85214 6.79964 3.58767 6.48008 3.43146 6.10617C3.27524 5.73227 3.2343 5.32081 3.31383 4.92383C3.39336 4.52685 3.58979 4.16218 3.87827 3.87593C4.16674 3.58968 4.53431 3.39471 4.93449 3.31568C5.33467 3.23665 5.74948 3.2771 6.12649 3.43192C6.50349 3.58674 6.82574 3.84898 7.0525 4.18547C7.27925 4.52196 7.40032 4.91759 7.4004 5.32234C7.40045 5.59108 7.34712 5.85719 7.24349 6.1055C7.13985 6.3538 6.98795 6.57942 6.79641 6.76948C6.60487 6.95954 6.37745 7.11032 6.12717 7.21321C5.87688 7.3161 5.60862 7.36908 5.3377 7.36912ZM7.11524 20.2784H3.55645V8.92148H7.11524V20.2784ZM22.2155 0.0014994H1.77002C1.30597 -0.0036952 0.858798 0.174071 0.52681 0.495736C0.194821 0.8174 0.00517525 1.25664 -0.000488281 1.71695V22.0816C0.00498141 22.5421 0.194516 22.9817 0.526493 23.3037C0.85847 23.6257 1.30574 23.8038 1.77002 23.7989H22.2155C22.6807 23.8047 23.1292 23.6271 23.4625 23.3051C23.7958 22.9831 23.9866 22.543 23.993 22.0816V1.71548C23.9864 1.25426 23.7955 0.814518 23.4622 0.492862C23.1289 0.171205 22.6805 -0.00605344 22.2155 2.94725e-05" fill="white"/>
</g>
<defs>
<clipPath id="clip0_6992_8860">
<rect width="24" height="24" fill="white"/>
</clipPath>
</defs>
</svg>
