<svg width="375" height="409" viewBox="0 0 375 409" fill="none" xmlns="http://www.w3.org/2000/svg">
<path d="M-31.0203 106.323C26.4767 83.6431 70.4396 28.2076 56.9997 5.14711C42.1471 -20.3171 -106.31 5.7078 -125.309 15.2424C-144.309 24.777 -13.0529 27.0534 -39.8727 56.4356C-69.6541 89.0504 -174.704 104.533 -175.628 116.726C-176.54 128.723 -97.481 132.536 -31.0203 106.323Z" stroke="#FAF4E7" stroke-width="2" stroke-miterlimit="10"/>
<path d="M-15.5066 107.521C50.5443 85.4127 96.1216 19.434 77.4871 -5.75318C56.3608 -34.2779 -107.174 1.48772 -132.475 10.2129C-154.282 17.7273 -30.6034 28.5564 -56.1269 63.0481C-83.8406 100.52 -180.279 120.121 -175.634 127.187C-170.634 134.759 -93.0032 133.428 -15.5066 107.521Z" stroke="#FAF4E7" stroke-width="2" stroke-miterlimit="10"/>
<path d="M0.00480549 108.716C74.4983 87.2336 121.747 10.6801 97.9674 -16.641C70.5109 -48.249 -106.801 -2.80983 -139.642 5.17971C-163.523 11.0151 -48.2622 30.0402 -72.3741 69.6788C-98.0999 111.957 -188.128 136.482 -175.627 137.597C-167.248 141.595 -88.7848 134.33 0.00480549 108.716Z" stroke="#FAF4E7" stroke-width="2" stroke-miterlimit="10"/>
<path d="M15.5097 109.938C98.4205 89.0081 147.316 1.96083 118.396 -27.5104C84.5192 -62.1108 -106.935 -12.6322 -146.864 0.173017C-171.875 8.19705 -66.0385 31.5521 -88.6654 76.3036C-112.486 123.4 -194.883 152.468 -175.677 148.04C-162.602 148.032 -84.5321 135.176 15.5097 109.938Z" stroke="#FAF4E7" stroke-width="2" stroke-miterlimit="10"/>
<path d="M31.0277 111.113C122.33 90.7168 172.86 -6.78376 138.938 -38.4407C98.6331 -76.0637 -104.391 -17.6856 -153.975 -4.88656C-181.803 2.30397 -83.7495 33.0023 -104.866 82.8861C-126.764 134.799 -202.703 166.629 -175.619 158.44C-158.272 153.201 -80.3018 135.988 31.0277 111.113Z" stroke="#FAF4E7" stroke-width="2" stroke-miterlimit="10"/>
<path d="M46.5188 112.312C146.241 92.4059 198.38 -15.513 159.417 -49.3348C112.633 -89.9647 -104.752 -14.0166 -161.151 -9.95597C-190.382 -7.83615 -101.577 34.458 -121.119 89.4725C-141.306 146.217 -210.056 183.065 -175.609 168.826C-154.184 160.005 -76.0839 136.776 46.5188 112.312Z" stroke="#FAF4E7" stroke-width="2" stroke-miterlimit="10"/>
<path d="M62.0298 113.506C170.156 94.092 223.872 -24.1943 179.915 -60.2342C126.614 -103.85 -104.462 -17.2493 -168.315 -14.9522C-199.554 -13.8312 -119.404 35.9731 -137.355 96.1159C-155.741 157.71 -216.87 199.396 -175.604 179.289C-149.721 166.673 -71.8602 137.552 62.0298 113.506Z" stroke="#FAF4E7" stroke-width="2" stroke-miterlimit="10"/>
<path d="M77.5425 114.699C194.08 95.7535 249.333 -32.9252 200.402 -71.1396C140.633 -117.749 -104.387 -20.3419 -175.479 -19.9949C-208.818 -19.8281 -137.274 37.4791 -153.61 102.723C-170.235 169.141 -223.508 215.57 -175.598 189.705C-145.121 173.26 -67.5919 138.291 77.5425 114.699Z" stroke="#FAF4E7" stroke-width="2" stroke-miterlimit="10"/>
<path d="M93.052 115.902C218.002 97.4167 274.867 -41.6342 220.885 -82.0352C154.615 -131.633 -104.479 -23.3543 -182.644 -25.0359C-218.169 -25.8032 -155.157 38.973 -169.849 109.33C-184.734 180.591 -230.095 231.676 -175.596 200.131C-140.443 179.798 -63.374 139.038 93.052 115.902Z" stroke="#FAF4E7" stroke-width="2" stroke-miterlimit="10"/>
<path d="M108.565 117.091C242.021 99.0215 300.349 -50.3335 241.367 -92.9284C168.626 -145.511 -104.728 -26.2638 -189.815 -30.0583C-227.594 -31.7417 -173.045 40.4854 -186.093 115.947C-199.254 192.054 -236.708 247.764 -175.582 210.565C-135.741 186.304 -59.1172 139.759 108.565 117.091Z" stroke="#FAF4E7" stroke-width="2" stroke-miterlimit="10"/>
<path d="M124.075 118.288C265.89 100.702 325.864 -59.0386 261.851 -103.831C182.541 -159.384 -105.146 -29.1417 -196.982 -35.0979C-237.067 -37.682 -190.965 41.9936 -202.35 122.558C-213.791 203.518 -243.244 263.802 -175.579 220.984C-131.017 192.79 -54.8418 140.469 124.075 118.288Z" stroke="#FAF4E7" stroke-width="2" stroke-miterlimit="10"/>
<path d="M139.587 119.492C289.837 102.347 351.282 -67.7218 282.336 -114.726C196.488 -173.246 -105.503 -31.9978 -204.154 -40.1058C-246.557 -43.6045 -208.864 43.4988 -218.597 129.198C-228.331 215.005 -249.813 279.859 -175.582 231.434C-126.306 199.278 -50.5644 141.185 139.587 119.492Z" stroke="#FAF4E7" stroke-width="2" stroke-miterlimit="10"/>
<path d="M155.099 120.685C313.801 103.979 376.756 -76.4469 302.817 -125.615C210.432 -187.111 -105.997 -34.8285 -211.333 -45.154C-256.108 -49.5438 -226.806 45.0307 -234.85 135.797C-242.895 226.564 -256.37 295.866 -175.582 241.867C-121.578 205.753 -46.2845 141.884 155.099 120.685Z" stroke="#FAF4E7" stroke-width="2" stroke-miterlimit="10"/>
<path d="M170.606 121.883C337.761 105.608 402.206 -85.1023 323.314 -136.517C224.384 -201.011 -106.552 -37.6771 -218.486 -50.1941C-265.664 -55.4782 -244.731 46.549 -251.095 142.407C-257.42 237.927 -262.947 311.872 -175.561 252.269C-116.851 212.217 -42.0102 142.587 170.606 121.883Z" stroke="#FAF4E7" stroke-width="2" stroke-miterlimit="10"/>
<path d="M186.118 123.078C361.726 107.234 427.38 -93.6653 343.75 -147.414C237.904 -214.672 -107.227 -40.4332 -225.703 -55.2196C-275.282 -61.406 -262.718 48.0738 -267.384 149.021C-272.021 249.399 -269.57 327.89 -175.609 262.702C-112.118 218.677 -37.6927 143.266 186.118 123.078Z" stroke="#FAF4E7" stroke-width="2" stroke-miterlimit="10"/>
<path d="M201.628 124.268C385.691 108.855 452.859 -102.365 364.277 -158.306C251.937 -228.577 -107.81 -43.1855 -232.827 -60.2494C-284.842 -67.3253 -280.614 49.6023 -283.588 155.656C-286.556 260.902 -276.103 343.912 -175.571 273.156C-107.389 225.14 -33.398 143.957 201.628 124.268Z" stroke="#FAF4E7" stroke-width="2" stroke-miterlimit="10"/>
<path d="M217.14 125.47C409.741 110.467 478.362 -111.07 384.764 -169.211C265.901 -242.397 -108.444 -46.0182 -239.99 -65.2915C-294.502 -73.2633 -298.951 51.1931 -299.82 162.245C-301.505 272.432 -282.665 359.89 -175.557 283.548C-102.655 231.599 -29.0808 144.643 217.14 125.47Z" stroke="#FAF4E7" stroke-width="2" stroke-miterlimit="10"/>
<path d="M232.648 126.668C433.759 111.91 503.861 -119.778 405.246 -180.111C279.895 -256.326 -109.129 -48.8006 -247.175 -70.3262C-304.057 -79.1971 -316.809 52.7022 -316.08 168.858C-315.994 283.892 -289.235 375.88 -175.542 293.975C-97.9236 238.055 -24.6328 145.089 232.648 126.668Z" stroke="#FAF4E7" stroke-width="2" stroke-miterlimit="10"/>
<path d="M248.164 127.86C457.716 113.574 529.329 -128.472 425.733 -191.009C293.895 -270.208 -109.827 -51.5711 -254.338 -75.3621C-313.671 -85.1281 -334.683 54.2312 -332.318 175.47C-330.478 295.352 -295.819 391.882 -175.536 304.398C-93.1252 244.465 -20.3447 145.824 248.164 127.86Z" stroke="#FAF4E7" stroke-width="2" stroke-miterlimit="10"/>
<path d="M263.672 129.058C481.669 115.235 554.845 -137.185 446.213 -201.902C307.867 -284.065 -110.561 -54.3475 -261.509 -80.3925C-323.306 -91.0592 -352.633 55.7292 -348.553 182.055C-344.877 306.773 -302.144 407.897 -175.53 314.802C-88.2741 250.995 -16.0641 146.564 263.672 129.058Z" stroke="#FAF4E7" stroke-width="2" stroke-miterlimit="10"/>
<path d="M279.182 130.257C505.615 116.921 580.398 -145.908 466.697 -212.802C321.854 -297.969 -111.294 -57.1225 -268.686 -85.3971C-332.964 -96.9622 -370.433 57.2611 -364.829 188.725C-359.457 318.277 -308.855 423.885 -175.538 325.256C-83.6284 257.425 -11.8034 147.271 279.182 130.257Z" stroke="#FAF4E7" stroke-width="2" stroke-miterlimit="10"/>
<path d="M-175.519 335.675C-78.9854 263.863 -7.48201 148.037 294.694 131.447C529.593 118.556 605.843 -154.594 487.196 -223.705C335.836 -311.858 -112.027 -59.8981 -275.846 -90.4591C-408.317 -115.183 -457.82 545.689 -175.519 335.675Z" stroke="#FAF4E7" stroke-width="2" stroke-miterlimit="10"/>
</svg>
